# xmcd
#
# Track frame offsets:
#	151
#	27992
#	45718
#	64846
#	95803
#	111098
#	128062
#	156782
#	195207
#
# Disc length: 2924 seconds
#
# Revision: 1
# Processed by: cddbd v1.5.1PL0 Copyright (c) Steve Scherf et al.
# Submitted via: audiograbber 1.83.01
#
DISCID=730b6a09
DTITLE=Gas Giant - Pleasant Journey In Heavy Tunes
DYEAR=2000
DGENRE=Psychedelic Rock
TTITLE0=Too Stoned
TTITLE1=Sit Down
TTITLE2=Down The Highway
TTITLE3=All Creatures
TTITLE4=Super Sun Trigger
TTITLE5=Desert Call
TTITLE6=Freak Sensation
TTITLE7=Storm Of My Enemies
TTITLE8=Holy Walker
EXTD=Hidden Track, Track 9 Holy Walker
EXTT0=
EXTT1=
EXTT2=
EXTT3=
EXTT4=
EXTT5=
EXTT6=
EXTT7=
EXTT8=
PLAYORDER=
